<svg width="1864" height="1864" viewBox="0 0 1864 1864" fill="none" xmlns="http://www.w3.org/2000/svg">
<rect x="84" y="84" width="1696" height="1696" fill="white" stroke="#003566" stroke-width="168"/>
<path d="M860.485 1352.62C808.509 1352.62 762.191 1343.61 721.53 1325.58C680.869 1307.19 648.693 1280.14 625.004 1244.43C601.668 1208.37 590 1163.46 590 1109.72C590 1064.46 598.309 1026.45 614.927 995.69C631.545 964.929 654.174 940.179 682.813 921.439C711.453 902.7 743.982 888.557 780.4 879.011C817.172 869.464 855.711 862.746 896.019 858.857C943.398 853.907 981.584 849.31 1010.58 845.067C1039.57 840.471 1060.61 833.753 1073.69 824.914C1086.77 816.074 1093.31 802.992 1093.31 785.667V782.485C1093.31 748.895 1082.71 722.907 1061.49 704.521C1040.63 686.135 1010.93 676.943 972.391 676.943C931.73 676.943 899.378 685.959 875.335 703.991C851.292 721.67 835.381 743.945 827.602 770.817L618.64 753.845C629.247 704.345 650.108 661.562 681.222 625.497C712.337 589.079 752.468 561.147 801.614 541.7C851.115 521.9 908.394 512 973.452 512C1018.71 512 1062.02 517.304 1103.39 527.911C1145.11 538.518 1182.06 554.959 1214.24 577.234C1246.77 599.51 1272.4 628.149 1291.14 663.153C1309.88 697.803 1319.25 739.348 1319.25 787.788V1337.24H1104.98V1224.28H1098.62C1085.53 1249.73 1068.03 1272.19 1046.11 1291.63C1024.19 1310.73 997.848 1325.75 967.087 1336.71C936.326 1347.32 900.792 1352.62 860.485 1352.62ZM925.189 1196.7C958.425 1196.7 987.772 1190.16 1013.23 1177.07C1038.69 1163.64 1058.66 1145.61 1073.16 1122.98C1087.66 1100.35 1094.9 1074.71 1094.9 1046.07V959.626C1087.83 964.222 1078.11 968.465 1065.73 972.354C1053.71 975.89 1040.1 979.249 1024.9 982.431C1009.69 985.26 994.489 987.911 979.286 990.387C964.082 992.508 950.293 994.453 937.918 996.221C911.399 1000.11 888.24 1006.3 868.44 1014.78C848.64 1023.27 833.259 1034.76 822.299 1049.26C811.338 1063.4 805.857 1081.08 805.857 1102.29C805.857 1133.05 816.995 1156.57 839.27 1172.83C861.899 1188.74 890.539 1196.7 925.189 1196.7Z" fill="black"/>
<path d="M814.485 1352.62C762.509 1352.62 716.191 1343.61 675.53 1325.58C634.869 1307.19 602.693 1280.14 579.004 1244.43C555.668 1208.37 544 1163.46 544 1109.72C544 1064.46 552.309 1026.45 568.927 995.69C585.545 964.929 608.174 940.179 636.813 921.439C665.453 902.7 697.982 888.557 734.4 879.011C771.172 869.464 809.711 862.746 850.019 858.857C897.398 853.907 935.584 849.31 964.577 845.067C993.57 840.471 1014.61 833.753 1027.69 824.914C1040.77 816.074 1047.31 802.992 1047.31 785.667V782.485C1047.31 748.895 1036.71 722.907 1015.49 704.521C994.631 686.135 964.931 676.943 926.391 676.943C885.73 676.943 853.378 685.959 829.335 703.991C805.292 721.67 789.381 743.945 781.602 770.817L572.64 753.845C583.247 704.345 604.108 661.562 635.222 625.497C666.337 589.079 706.468 561.147 755.614 541.7C805.115 521.9 862.394 512 927.452 512C972.709 512 1016.02 517.304 1057.39 527.911C1099.11 538.518 1136.06 554.959 1168.24 577.234C1200.77 599.51 1226.4 628.149 1245.14 663.153C1263.88 697.803 1273.25 739.348 1273.25 787.788V1337.24H1058.98V1224.28H1052.62C1039.53 1249.73 1022.03 1272.19 1000.11 1291.63C978.19 1310.73 951.848 1325.75 921.087 1336.71C890.326 1347.32 854.792 1352.62 814.485 1352.62ZM879.189 1196.7C912.425 1196.7 941.772 1190.16 967.229 1177.07C992.686 1163.64 1012.66 1145.61 1027.16 1122.98C1041.66 1100.35 1048.9 1074.71 1048.9 1046.07V959.626C1041.83 964.222 1032.11 968.465 1019.73 972.354C1007.71 975.89 994.101 979.249 978.897 982.431C963.693 985.26 948.489 987.911 933.286 990.387C918.082 992.508 904.293 994.453 891.918 996.221C865.399 1000.11 842.24 1006.3 822.44 1014.78C802.64 1023.27 787.259 1034.76 776.299 1049.26C765.338 1063.4 759.857 1081.08 759.857 1102.29C759.857 1133.05 770.995 1156.57 793.27 1172.83C815.899 1188.74 844.539 1196.7 879.189 1196.7Z" fill="#003566"/>
</svg>
